# xmcd
#
# Track frame offsets: 
#        150
#        16156
#        33315
#        47464
#        58245
#        76838
#        92050
#        105802
#        129786
#        145608
#        158622
#        173909
#        187260
#        199096
#        216731
#        232542
#
# Disc length: 3315 seconds
#
# Revision: 1
# Processed by: cddbd v1.5.2PL0 Copyright (c) Steve Scherf et al.
# Submitted via: ExactAudioCopy v0.95b4
#
DISCID=c30cf110
DTITLE=Various Artist - 20 cm Fete Auf Mallorca - CD2
DYEAR=1900
DGENRE=
TTITLE0=Geier Sturzflug - Die Pure Lust Am Leben
TTITLE1=Jürgen Marcus - Eine Neue Liebe Ist Wie Ein Neues Leben
TTITLE2=Maikel - Frösche In Der Nacht
TTITLE3=Die Drei Besoffkis - Ole Wir Fahr'n In P... Nach Mallorca
TTITLE4=WWW.Bloed-Mann.De - Weiber
TTITLE5=Gunter Bombe - Anton Aus Tirol
TTITLE6=West R. Wille - Willenlos
TTITLE7=Alex B. Steiger - Sexy
TTITLE8=Partyexpress - Wahnsinn Hölle-Hölle-Hölle
TTITLE9=Die B-Männer - Hola Baller
TTITLE10=Manuela - Ole Mallorca
TTITLE11=Chris Engel - Hannelore, Heut' Machen Wir Amore
TTITLE12=Die Drei Besoffkis - Was Geht Uns Das An
TTITLE13=Gunter Bombe - Zehn Nackte Friseusen
TTITLE14=Sandy Gold - Männer Made In Germany
TTITLE15=WWW.Bloed-Mann.De - Zeig' Doch Mal Die Möpse
EXTD=
EXTT0=
EXTT1=
EXTT2=
EXTT3=
EXTT4=
EXTT5=
EXTT6=
EXTT7=
EXTT8=
EXTT9=
EXTT10=
EXTT11=
EXTT12=
EXTT13=
EXTT14=
EXTT15=
PLAYORDER=
